<svg xmlns="http://www.w3.org/2000/svg" width="180" height="115" viewBox="0 0 180 115" fill="none">
  <path d="M66.1048 114.247C64.5736 114.243 63.0599 113.972 61.6576 113.451C60.2552 112.93 58.9943 112.171 57.9531 111.22L3.68311 62.3206C1.65443 60.4894 0.567668 58.0506 0.661905 55.5407C0.756142 53.0308 2.02366 50.6554 4.18561 48.937C6.34757 47.2187 9.22687 46.2982 12.1901 46.378C15.1533 46.4578 17.9578 47.5315 19.9864 49.3627L65.9931 90.8847L159.905 3.86808C160.858 2.86287 162.043 2.0333 163.389 1.43032C164.734 0.827344 166.211 0.463685 167.728 0.361683C169.245 0.259681 170.771 0.421491 172.212 0.837172C173.653 1.25285 174.978 1.91363 176.106 2.77892C177.235 3.64421 178.142 4.69574 178.773 5.86892C179.404 7.04211 179.745 8.31219 179.776 9.60115C179.806 10.8901 179.525 12.1707 178.95 13.3644C178.375 14.558 177.518 15.6394 176.431 16.5423L74.3681 111.126C73.3368 112.094 72.0802 112.871 70.6774 113.408C69.2746 113.945 67.7558 114.231 66.2164 114.247H66.1048Z" fill="#FDFDFD"/>
</svg>