<svg xmlns="http://www.w3.org/2000/svg" width="55" height="50" viewBox="0 0 55 50" fill="none">
<path d="M27.5007 4.1665C22.9682 4.1665 18.5375 5.38836 14.7688 7.67755C11.0002 9.96675 8.06293 13.2205 6.32842 17.0273C4.59391 20.8341 4.14009 25.0229 5.02433 29.0642C5.90858 33.1055 8.09118 36.8176 11.2961 39.7312C14.5011 42.6448 18.5844 44.629 23.0298 45.4329C27.4752 46.2367 32.083 45.8242 36.2705 44.2473C40.458 42.6705 44.0371 40.0002 46.5552 36.5742C49.0733 33.1482 50.4173 29.1203 50.4173 24.9998C50.4173 22.264 49.8246 19.5549 48.6729 17.0273C47.5212 14.4996 45.8332 12.203 43.7052 10.2684C41.5772 8.33389 39.0509 6.79932 36.2705 5.75235C33.4901 4.70537 30.5101 4.1665 27.5007 4.1665ZM27.5007 41.6665C23.8747 41.6665 20.3301 40.689 17.3152 38.8577C14.3003 37.0263 11.9505 34.4233 10.5629 31.3779C9.17526 28.3325 8.8122 24.9813 9.5196 21.7483C10.227 18.5153 11.9731 15.5456 14.537 13.2147C17.101 10.8838 20.3677 9.2965 23.924 8.65342C27.4803 8.01033 31.1665 8.34039 34.5165 9.60185C37.8665 10.8633 40.7298 12.9995 42.7443 15.7403C44.7588 18.4812 45.834 21.7035 45.834 24.9998C45.834 29.4201 43.9025 33.6593 40.4643 36.785C37.0261 39.9106 32.363 41.6665 27.5007 41.6665Z" fill="#8A474C"/>
<path d="M27.5003 12.5001C25.3731 12.5001 23.3329 13.2684 21.8287 14.6358C20.3245 16.0033 19.4795 17.8579 19.4795 19.7918C19.4795 20.3443 19.7209 20.8742 20.1507 21.2649C20.5805 21.6556 21.1634 21.8751 21.7712 21.8751C22.3789 21.8751 22.9618 21.6556 23.3916 21.2649C23.8214 20.8742 24.0628 20.3443 24.0628 19.7918C24.0628 19.1737 24.2644 18.5696 24.6421 18.0557C25.0199 17.5417 25.5567 17.1412 26.1849 16.9047C26.813 16.6682 27.5041 16.6063 28.1709 16.7269C28.8378 16.8474 29.4503 17.1451 29.931 17.5821C30.4117 18.0191 30.7391 18.576 30.8718 19.1821C31.0044 19.7883 30.9363 20.4167 30.6762 20.9877C30.416 21.5587 29.9754 22.0468 29.4101 22.3902C28.8448 22.7335 28.1802 22.9168 27.5003 22.9168C26.8925 22.9168 26.3096 23.1363 25.8799 23.527C25.4501 23.9177 25.2087 24.4476 25.2087 25.0001V29.1668C25.2087 29.7193 25.4501 30.2492 25.8799 30.6399C26.3096 31.0306 26.8925 31.2501 27.5003 31.2501C28.1081 31.2501 28.691 31.0306 29.1208 30.6399C29.5505 30.2492 29.792 29.7193 29.792 29.1668V26.7501C31.6439 26.2585 33.2379 25.1749 34.2802 23.699C35.3225 22.2231 35.7428 20.4544 35.4638 18.719C35.1847 16.9836 34.225 15.3984 32.7615 14.2555C31.2981 13.1127 29.4295 12.4893 27.5003 12.5001Z" fill="#8A474C"/>
<path d="M27.5007 37.4997C28.7663 37.4997 29.7923 36.5669 29.7923 35.4163C29.7923 34.2657 28.7663 33.333 27.5007 33.333C26.235 33.333 25.209 34.2657 25.209 35.4163C25.209 36.5669 26.235 37.4997 27.5007 37.4997Z" fill="#8A474C"/>
</svg>