<svg xmlns="http://www.w3.org/2000/svg" viewBox="0 0 119 116" fill="none">
    <path d="M24.791 29H94.2077C96.9461 29 99.166 26.836 99.166 24.1667C99.166 21.4973 96.9461 19.3333 94.2077 19.3333H24.791C22.0526 19.3333 19.8327 21.4973 19.8327 24.1667C19.8327 26.836 22.0526 29 24.791 29Z" fill="#FDFDFD" fill-opacity="0.5"/>
    <path d="M99.166 33.833V24.1663C99.166 21.497 96.9461 19.333 94.2077 19.333C91.4693 19.333 89.2493 21.497 89.2493 24.1663V33.833C89.2493 36.5024 91.4693 38.6663 94.2077 38.6663C96.9461 38.6663 99.166 36.5024 99.166 33.833Z" fill="#FDFDFD" fill-opacity="0.5"/>
    <path d="M29.751 33.833V24.1663C29.751 21.497 27.5311 19.333 24.7926 19.333C22.0542 19.333 19.8343 21.497 19.8343 24.1663V33.833C19.8343 36.5024 22.0542 38.6663 24.7926 38.6663C27.5311 38.6663 29.751 36.5024 29.751 33.833Z" fill="#FDFDFD" fill-opacity="0.5"/>
    <path d="M39.6663 67.6665C38.8966 67.6665 38.1374 67.4918 37.4489 67.1563C36.7604 66.8207 36.1615 66.3335 35.6997 65.7332C35.309 65.2254 35.0247 64.6476 34.8631 64.0327C34.7015 63.4179 34.6658 62.778 34.7578 62.1497C34.8499 61.5213 35.0681 60.9168 35.3998 60.3706C35.7316 59.8245 36.1704 59.3474 36.6913 58.9665L56.5247 44.4665C57.3739 43.8616 58.3983 43.5356 59.4501 43.5356C60.5018 43.5356 61.5263 43.8616 62.3755 44.4665L82.2088 58.0965C83.2778 58.8357 84.003 59.9574 84.226 61.2163C84.449 62.4753 84.1516 63.7691 83.3988 64.8149C83.0231 65.3376 82.5448 65.7826 81.9916 66.1242C81.4385 66.4658 80.8214 66.6972 80.176 66.805C79.5306 66.9129 78.8697 66.895 78.2314 66.7525C77.5931 66.6101 76.9901 66.3457 76.4572 65.9749L59.4997 54.3265L42.6413 66.6999C41.7831 67.3273 40.7392 67.6665 39.6663 67.6665Z" fill="#FDFDFD" fill-opacity="0.5"/>
    <path d="M59.5003 101.5C58.1853 101.5 56.9241 100.991 55.9943 100.084C55.0644 99.1778 54.542 97.9484 54.542 96.6665V57.9998C54.542 56.718 55.0644 55.4886 55.9943 54.5822C56.9241 53.6757 58.1853 53.1665 59.5003 53.1665C60.8154 53.1665 62.0765 53.6757 63.0064 54.5822C63.9363 55.4886 64.4587 56.718 64.4587 57.9998V96.6665C64.4587 97.9484 63.9363 99.1778 63.0064 100.084C62.0765 100.991 60.8154 101.5 59.5003 101.5Z" fill="#FDFDFD" fill-opacity="0.5"/>
</svg>